<?xml version="1.0" encoding="UTF-8" standalone="no"?>
<!-- Created with Inkscape (http://www.inkscape.org/) -->

<svg
   xmlns:dc="http://purl.org/dc/elements/1.1/"
   xmlns:cc="http://creativecommons.org/ns#"
   xmlns:rdf="http://www.w3.org/1999/02/22-rdf-syntax-ns#"
   xmlns:svg="http://www.w3.org/2000/svg"
   xmlns="http://www.w3.org/2000/svg"
   xmlns:xlink="http://www.w3.org/1999/xlink"
   xmlns:sodipodi="http://sodipodi.sourceforge.net/DTD/sodipodi-0.dtd"
   xmlns:inkscape="http://www.inkscape.org/namespaces/inkscape"
   width="11.052748mm"
   height="10.586782mm"
   viewBox="0 0 39.163282 37.512219"
   id="svg4470"
   version="1.1"
   inkscape:version="0.91 r13725"
   sodipodi:docname="logging.svg">
  <defs
     id="defs4472">
    <radialGradient
       r="16"
       gradientTransform="matrix(1.5315,0,0,1.028,-3.9699,29.405)"
       cx="15.286"
       cy="33.369999"
       gradientUnits="userSpaceOnUse"
       id="radialGradient4554">
      <stop
         offset="0"
         stop-color="#f00"
         id="stop3009" />
      <stop
         offset="1"
         stop-color="#800000"
         id="stop3011" />
    </radialGradient>
    <linearGradient
       y2="4.2326002"
       x2="7.2297001"
       gradientTransform="matrix(1.0345,0,0,1,4.1192,31.948)"
       y1="28.798"
       gradientUnits="userSpaceOnUse"
       x1="28.211"
       id="linearGradient4556">
      <stop
         offset="0"
         stop-opacity=".19417"
         stop-color="#fff"
         id="stop2800" />
      <stop
         offset="1"
         stop-opacity="0"
         stop-color="#fff"
         id="stop2802" />
    </linearGradient>
    <linearGradient
       y2="2.5"
       x2="20.540001"
       gradientTransform="matrix(1.0334,0,0,0.9055,3.5706,32.126)"
       y1="5.9130998"
       gradientUnits="userSpaceOnUse"
       x1="20.540001"
       id="linearGradient4558">
      <stop
         offset="0"
         stop-opacity="0"
         id="stop2782" />
      <stop
         offset="1"
         stop-opacity=".23301"
         stop-color="#fff"
         id="stop2784" />
    </linearGradient>
    <radialGradient
       r="16"
       gradientTransform="matrix(1.5315,0,0,1.028,-3.9699,29.405)"
       cx="15.286"
       cy="33.369999"
       gradientUnits="userSpaceOnUse"
       id="radialGradient4554-3">
      <stop
         offset="0"
         stop-color="#f00"
         id="stop3009-6" />
      <stop
         offset="1"
         stop-color="#800000"
         id="stop3011-7" />
    </radialGradient>
    <linearGradient
       id="linearGradient2431">
      <stop
         offset="0"
         style="stop-color:#c6c6c6"
         id="stop2433" />
      <stop
         offset=".13501"
         style="stop-color:#434343"
         id="stop2439" />
      <stop
         offset=".64724"
         style="stop-color:#f9f9f9"
         id="stop2441" />
      <stop
         offset="1"
         style="stop-color:#bcbcbc"
         id="stop2435" />
    </linearGradient>
    <radialGradient
       gradientTransform="matrix(1,0,0,0.09243698,0,44.229759)"
       gradientUnits="userSpaceOnUse"
       xlink:href="#E"
       id="F"
       r="21.856001"
       cy="48.735001"
       cx="25.712" />
    <linearGradient
       id="E">
      <stop
         stop-color="#2e3436"
         id="R" />
      <stop
         stop-opacity="0"
         stop-color="#2e3436"
         offset="1"
         id="S" />
    </linearGradient>
    <radialGradient
       gradientTransform="matrix(0.6174379,2.5604989,-3.7886681,0.9135993,49.367351,-37.86865)"
       gradientUnits="userSpaceOnUse"
       xlink:href="#D"
       id="G"
       r="16.219"
       cy="12.06"
       cx="13.559" />
    <linearGradient
       id="D">
      <stop
         stop-color="#eeeeec"
         id="P" />
      <stop
         stop-color="#d3d7cf"
         offset="1"
         id="Q" />
    </linearGradient>
    <linearGradient
       gradientUnits="userSpaceOnUse"
       xlink:href="#C"
       id="H"
       y2="43.34"
       x2="0"
       y1="2.438" />
    <linearGradient
       id="C">
      <stop
         stop-opacity="0.8"
         stop-color="#fff"
         id="N" />
      <stop
         stop-opacity="0"
         stop-color="#fff"
         offset="1"
         id="O" />
    </linearGradient>
    <filter
       style="color-interpolation-filters:sRGB"
       id="K"
       height="1.302"
       width="1.321"
       y="-0.15099999"
       x="-0.16">
      <feGaussianBlur
         id="T"
         stdDeviation="0.5327" />
    </filter>
    <radialGradient
       gradientTransform="matrix(1.9999999,2.0717464e-7,-2.1678585e-7,2.0927836,-34.124995,-9.2675658)"
       gradientUnits="userSpaceOnUse"
       xlink:href="#D"
       id="I"
       r="3.03"
       cy="8.6090002"
       cx="34.130001" />
    <linearGradient
       gradientUnits="userSpaceOnUse"
       xlink:href="#C"
       id="J"
       y2="6.3629999"
       x2="36.533001"
       y1="8.75"
       x1="34.130001" />
  </defs>
  <sodipodi:namedview
     id="base"
     pagecolor="#ffffff"
     bordercolor="#666666"
     borderopacity="1.0"
     inkscape:pageopacity="0.0"
     inkscape:pageshadow="2"
     inkscape:zoom="1.296957"
     inkscape:cx="-109.88631"
     inkscape:cy="1.3743461"
     inkscape:document-units="px"
     inkscape:current-layer="layer1"
     showgrid="false"
     fit-margin-top="1"
     fit-margin-left="1"
     fit-margin-right="1"
     fit-margin-bottom="1"
     width="115mm"
     height="25mm" />
  <metadata
     id="metadata4475">
    <rdf:RDF>
      <cc:Work
         rdf:about="">
        <dc:format>image/svg+xml</dc:format>
        <dc:type
           rdf:resource="http://purl.org/dc/dcmitype/StillImage" />
        <dc:title></dc:title>
      </cc:Work>
    </rdf:RDF>
  </metadata>
  <g
     inkscape:label="Layer 1"
     inkscape:groupmode="layer"
     id="layer1"
     transform="translate(-63.590787,-63.291558)">
    <g
       id="g3421"
       transform="matrix(0.67052345,0,0,0.66861385,67.079865,66.08102)">
      <path
         id="1"
         transform="matrix(1.0944165,0,0,0.9661277,-4.1401442,-2.4030967)"
         d="m 47.568058,48.734642 a 21.855595,2.0202651 0 1 1 -43.7111893,0 21.855595,2.0202651 0 1 1 43.7111893,0 z"
         inkscape:connector-curvature="0"
         style="opacity:0.54000005;fill:url(#F)" />
      <path
         id="2"
         d="M 9.84375,1.367375 C 8.1263501,1.367375 6.75,2.7437253 6.75,4.461125 l 0,37.15625 c 0,1.7174 1.3763496,3.093751 3.09375,3.09375 l 28.3125,0 c 1.7174,0 3.09375,-1.376351 3.09375,-3.09375 l 0,-33.21875 -6.75,-7.03125 -24.65625,0 z"
         inkscape:connector-curvature="0"
         style="fill:#888a85" />
      <path
         id="3"
         transform="translate(4.4958504e-8,0.148625)"
         d="m 9.84375,2.25 c -1.1586131,0 -2.0625,0.903887 -2.0625,2.0625 l 0,37.15625 c 0,1.158614 0.9038868,2.062501 2.0625,2.0625 l 28.3125,0 c 1.158613,0 2.0625,-0.903888 2.0625,-2.0625 l 0,-32.78125 L 34.0625,2.25 9.84375,2.25 Z"
         inkscape:connector-curvature="0"
         style="fill:url(#G)" />
      <path
         id="4"
         transform="translate(4.4958504e-8,0.148625)"
         d="m 9.84375,2.75 c -0.8977312,0 -1.5625,0.6647689 -1.5625,1.5625 l 0,37.15625 c 0,0.897732 0.6647689,1.562501 1.5625,1.5625 l 28.3125,0 c 0.897731,0 1.5625,-0.66477 1.5625,-1.5625 l 0,-32.625 -5.875,-6.09375 -24,0 z"
         inkscape:connector-curvature="0"
         style="opacity:0.8;fill:none;stroke:url(#H);stroke-width:0.74675018;stroke-linecap:square;stroke-linejoin:round" />
      <path
         id="5"
         d="m 32.25,2.40625 0,6.875 c 0,0.956611 0.676661,1.593751 1.71875,1.59375 l 6.25,0 0,-1.8125 -6.9375,-6.65625 -1.03125,0 z"
         inkscape:connector-curvature="0"
         style="opacity:0.16000001;fill:#2e3436;filter:url(#K)" />
      <path
         id="6"
         d="m 33.125,1.375 0,6.3125 c -2e-6,1.158614 0.903887,2.062501 2.0625,2.0625 l 6.0625,0 0,-1.34375 -6.75,-7.03125 -1.375,0 z"
         inkscape:connector-curvature="0"
         style="fill:#888a85" />
      <path
         id="7"
         d="m 34.125,2.40625 0,5.28125 c -10e-7,0.6407004 0.421799,1.0625006 1.0625,1.0625 l 5,0 -6.0625,-6.34375 z"
         inkscape:connector-curvature="0"
         style="fill:url(#I)" />
      <path
         id="8"
         d="m 34.625,3.6875 0,4 c -10e-7,0.3773049 0.185194,0.5625003 0.5625,0.5625 l 3.84375,0 L 34.625,3.6875 Z"
         inkscape:connector-curvature="0"
         style="opacity:0.8;fill:none;stroke:url(#J);stroke-width:0.74675018;stroke-linecap:square" />
      <path
         id="9"
         d="m 22.332903,14.407299 c -0.343654,1.58e-4 -0.719596,0.795847 -0.800647,1.129815 l -2.233526,9.144775 c -0.116177,-0.05914 -0.244499,-0.105588 -0.378243,-0.126878 -0.664362,-0.105754 -1.400379,-0.380461 -1.84571,-0.675083 -0.1311,-0.08673 -0.225111,-0.170684 -0.296846,-0.244184 -7.87e-4,-0.248088 -0.04717,-0.500858 -0.15321,-0.739722 -0.123792,-0.277457 -0.423661,-0.466371 -0.727378,-0.458233 -0.303718,0.0081 -0.593038,0.212846 -0.701798,0.496541 -0.117158,0.307049 -0.107829,0.639389 -0.02872,0.93841 -0.0065,0.0074 -0.0047,0.0085 -0.01196,0.01675 -0.136587,0.157493 0.1113,0.835272 -0.310985,0.971847 -0.422282,0.13657 -0.793316,0.485447 -1.224332,0.653446 -0.544984,0.519417 -2.723438,0.586798 -2.470026,0.55205 0.639129,0.414613 2.808841,0.02482 3.576833,-0.195173 0.511506,-0.165431 0.999393,-0.405102 1.39805,-0.775632 0.03327,0.0233 0.06169,0.05166 0.09576,0.07421 0.670868,0.443829 1.509903,0.743461 2.348438,0.890539 0.01067,0.01612 0.01231,0.01454 0.0383,0.06464 0.08756,0.168689 0.191205,0.554929 0.653539,0.861815 0.205835,0.136996 0.479145,0.166611 0.709541,0.07688 0.230405,-0.08972 0.411694,-0.296389 0.470663,-0.53651 l 1.709256,-6.995049 2.111442,12.374181 c 0.06102,0.368239 0.225967,1.298211 0.598921,1.283087 0.372953,-0.01512 0.659809,-1.169183 0.690803,-1.541149 0.121514,-1.393831 0.242673,-2.608305 0.335752,-3.821182 0.07687,-1.001847 0.277619,-1.816026 0.79717,-2.468129 0.516028,0.250849 1.145364,0.417273 1.867257,0.275297 0.240337,-0.04699 0.453709,-0.215316 0.555397,-0.438085 l 0.675082,-1.474653 c 0.331648,-0.169437 0.582903,-0.156506 1.048537,0.189121 0.331351,0.510624 0.49738,0.508325 0.775633,2.03243 0.06674,0.368027 0.433373,0.656326 0.806751,0.634394 0.545098,-0.03176 1.02079,-0.27196 1.350167,-0.567357 0.183787,-0.164832 0.326136,-0.338931 0.452456,-0.512302 0.139451,0.02474 0.25721,0.05435 0.323176,0.08618 0.0228,0.01104 0.03439,0.0089 0.04548,0.0096 -7.89e-4,0.0035 -0.0024,0.0024 -0.0024,0.0072 -0.01478,0.202139 0.05377,0.409107 0.186296,0.562464 0.132502,0.153367 0.327338,0.251226 0.529476,0.265961 0.202146,0.01472 0.409098,-0.05383 0.562434,-0.186389 0.15335,-0.132529 0.25118,-0.327377 0.265872,-0.529516 0.04945,-0.682678 -0.437953,-1.293568 -0.912084,-1.522532 -0.474125,-0.228974 -0.947016,-0.270043 -1.347779,-0.284879 -0.268397,-0.01044 -0.537679,0.130323 -0.682268,0.356695 -0.104459,0.163552 -0.199341,0.294073 -0.289654,0.406965 -0.304841,-1.036385 -0.646987,-1.366737 -0.830696,-1.692498 -0.0502,-0.0887 -0.118194,-0.167304 -0.198697,-0.229821 -0.988963,-0.774325 -2.209082,-0.781318 -3.083367,-0.246578 -0.130102,0.07972 -0.2357,0.198829 -0.299243,0.337548 l -0.598487,1.307084 c -0.319157,-0.01536 -0.558079,-0.157555 -0.897715,-0.394994 -0.281091,-0.19612 -0.695024,-0.173242 -0.952781,0.05266 -0.612085,0.53707 -1.05984,1.862645 -1.317736,2.545452 l -1.669892,-10.759 c -0.0606,-0.356041 -0.351157,-1.18175 -0.712309,-1.182478 l -1.7e-5,2.3e-5 z"
         inkscape:connector-curvature="0"
         style="fill:#ffffff" />
      <path
         id="A"
         d="m 22.34375,14.40625 c -0.343654,1.58e-4 -0.731449,0.791032 -0.8125,1.125 L 19.3125,24.6875 c -0.116178,-0.05914 -0.272506,-0.10371 -0.40625,-0.125 -0.664361,-0.105754 -1.398419,-0.392878 -1.84375,-0.6875 -0.131101,-0.08673 -0.209515,-0.1765 -0.28125,-0.25 -7.87e-4,-0.248089 -0.05021,-0.479886 -0.15625,-0.71875 -0.123793,-0.277457 -0.415033,-0.476888 -0.71875,-0.46875 -0.303718,0.0081 -0.60999,0.216305 -0.71875,0.5 -0.117158,0.307048 -0.11036,0.638479 -0.03125,0.9375 -0.06829,0.07875 -0.05461,0.293797 -0.0625,0.5 -3.59e-4,0.01019 1.55e-4,0.02107 0,0.03125 -0.01117,0.19544 -0.04931,0.403843 -0.25,0.46875 -0.422282,0.13657 -0.787734,0.457001 -1.21875,0.625 -0.544984,0.519417 -2.722162,0.597248 -2.46875,0.5625 -0.106829,0.331656 0.0655,0.300076 0,1 0.639129,0.414613 2.794508,0.0325 3.5625,-0.1875 0.511506,-0.165431 1.007593,-0.41072 1.40625,-0.78125 0.03327,0.0233 0.05968,0.03995 0.09375,0.0625 0.670867,0.443829 1.505215,0.759172 2.34375,0.90625 0.01067,0.01612 0.0053,0.01241 0.03125,0.0625 0.08756,0.168689 0.193916,0.568114 0.65625,0.875 0.205835,0.136997 0.488354,0.152233 0.71875,0.0625 0.230404,-0.08973 0.409781,-0.291129 0.46875,-0.53125 l 1.71875,-7 2.09375,12.375 c 0.06102,0.368239 0.252046,1.296374 0.625,1.28125 0.372953,-0.01512 0.656506,-1.159284 0.6875,-1.53125 0.121513,-1.393832 0.219421,-2.630873 0.3125,-3.84375 0.07688,-1.001848 0.292949,-1.816647 0.8125,-2.46875 0.516028,0.250849 1.153107,0.423226 1.875,0.28125 0.240338,-0.04699 0.429562,-0.214731 0.53125,-0.4375 l 0.6875,-1.46875 c 0.331648,-0.169436 0.596866,-0.158127 1.0625,0.1875 0.331351,0.510625 0.471747,0.507145 0.75,2.03125 0.06674,0.368027 0.439122,0.646932 0.8125,0.625 C 32.951346,27.53074 33.420623,27.295397 33.75,27 c 0.183786,-0.164833 0.34243,-0.326629 0.46875,-0.5 0.139452,0.02474 0.246534,0.06192 0.3125,0.09375 0.0228,0.01104 0.05141,-6.31e-4 0.0625,0 -0.01478,0.202139 0.05497,0.409143 0.1875,0.5625 0.132503,0.153367 0.329112,0.266515 0.53125,0.28125 0.202147,0.01472 0.409164,-0.05494 0.5625,-0.1875 0.15335,-0.13253 0.235308,-0.329111 0.25,-0.53125 C 36.14173,26.487757 36.08488,26.26504 36,26.0625 36.06606,25.956138 36.115921,25.843667 36.125,25.71875 36.17444,25.036073 35.692881,24.416464 35.21875,24.1875 34.744626,23.958526 34.275763,23.921086 33.875,23.90625 33.606603,23.89581 33.332089,24.023628 33.1875,24.25 33.08304,24.413553 32.996563,24.543358 32.90625,24.65625 32.601407,23.619865 32.246209,23.294511 32.0625,22.96875 32.01229,22.88005 31.955503,22.812517 31.875,22.75 30.886037,21.975676 29.655535,21.96526 28.78125,22.5 c -0.130101,0.07971 -0.248957,0.205031 -0.3125,0.34375 L 27.875,24.15625 C 27.555844,24.140895 27.339636,23.987439 27,23.75 c -0.281091,-0.19612 -0.710993,-0.163399 -0.96875,0.0625 -0.612086,0.53707 -1.054604,1.848443 -1.3125,2.53125 l -1.6875,-10.75 c -0.0606,-0.356041 -0.326348,-1.186772 -0.6875,-1.1875 z"
         inkscape:connector-curvature="0"
         style="fill:#ffffff" />
      <path
         id="B"
         d="m 22.332903,14.407241 c -0.343654,1.58e-4 -0.719596,0.795847 -0.800647,1.129815 l -2.233526,9.144775 c -0.116177,-0.05914 -0.244499,-0.105588 -0.378243,-0.126878 -0.664362,-0.105754 -1.400379,-0.380461 -1.84571,-0.675083 -0.1311,-0.08673 -0.225111,-0.170684 -0.296846,-0.244184 -7.87e-4,-0.248088 -0.04717,-0.500858 -0.15321,-0.739722 -0.123792,-0.277457 -0.423661,-0.466371 -0.727378,-0.458233 -0.303718,0.0081 -0.593038,0.212846 -0.701798,0.496541 -0.117158,0.307049 -0.107829,0.639389 -0.02872,0.93841 -0.0065,0.0074 -0.0047,0.0085 -0.01196,0.01675 -0.136587,0.157493 0.1113,0.835272 -0.310985,0.971847 -0.422282,0.13657 -0.793316,0.485447 -1.224332,0.653446 -0.544984,0.519417 -2.723438,0.586798 -2.470026,0.55205 0.639129,0.414613 2.808841,0.02482 3.576833,-0.195173 0.511506,-0.165431 0.999393,-0.405102 1.39805,-0.775632 0.03327,0.0233 0.06169,0.05166 0.09576,0.07421 0.670868,0.443829 1.509903,0.743461 2.348438,0.890539 0.01067,0.01612 0.01231,0.01454 0.0383,0.06463 0.08756,0.168689 0.191205,0.554929 0.653539,0.861815 0.205835,0.136996 0.479145,0.166611 0.709541,0.07688 0.230405,-0.08972 0.411694,-0.296389 0.470663,-0.53651 l 1.709256,-6.995049 2.111442,12.374181 c 0.06102,0.368239 0.225967,1.298211 0.598921,1.283087 0.372953,-0.01512 0.659809,-1.169183 0.690803,-1.541149 0.121514,-1.393831 0.242673,-2.608305 0.335752,-3.821182 0.07687,-1.001847 0.277619,-1.816026 0.79717,-2.468129 0.516028,0.250849 1.145364,0.417273 1.867257,0.275297 0.240337,-0.04699 0.453709,-0.215316 0.555397,-0.438085 l 0.675082,-1.474653 c 0.331648,-0.169437 0.582903,-0.156506 1.048537,0.189121 0.331351,0.510624 0.49738,0.508325 0.775633,2.03243 0.06674,0.368027 0.433373,0.656326 0.806751,0.634394 0.545098,-0.03176 1.02079,-0.27196 1.350167,-0.567357 0.183787,-0.164832 0.326136,-0.338931 0.452456,-0.512302 0.139451,0.02474 0.25721,0.05435 0.323176,0.08618 0.0228,0.01104 0.03439,0.0089 0.04548,0.0096 -7.89e-4,0.0035 -0.0024,0.0024 -0.0024,0.0072 -0.01478,0.202139 0.05377,0.409107 0.186296,0.562464 0.132502,0.153367 0.327338,0.251226 0.529476,0.265961 0.202146,0.01472 0.409098,-0.05383 0.562434,-0.186389 0.15335,-0.132529 0.25118,-0.327377 0.265872,-0.529516 0.04945,-0.682678 -0.437953,-1.293568 -0.912084,-1.522532 -0.474125,-0.228974 -0.947016,-0.270043 -1.347779,-0.284879 -0.268397,-0.01044 -0.537679,0.130323 -0.682268,0.356695 -0.104459,0.163552 -0.199341,0.294073 -0.289654,0.406965 -0.304841,-1.036385 -0.646987,-1.366737 -0.830696,-1.692498 -0.0502,-0.0887 -0.118194,-0.167304 -0.198697,-0.229821 -0.988963,-0.774325 -2.209082,-0.781318 -3.083367,-0.246578 -0.130102,0.07972 -0.2357,0.198829 -0.299243,0.337548 l -0.598487,1.307084 c -0.319157,-0.01536 -0.558079,-0.157555 -0.897715,-0.394994 -0.281091,-0.19612 -0.695024,-0.173242 -0.952781,0.05266 -0.612085,0.53707 -1.05984,1.862645 -1.317736,2.545452 l -1.669892,-10.759 c -0.0606,-0.356041 -0.351157,-1.18175 -0.712309,-1.182478 l -1.7e-5,2.3e-5 z"
         inkscape:connector-curvature="0"
         style="fill:#888a85" />
    </g>
  </g>
</svg>
