<?xml version="1.0" encoding="UTF-8" standalone="no"?>
<!-- Created with Inkscape (http://www.inkscape.org/) -->

<svg
   xmlns:dc="http://purl.org/dc/elements/1.1/"
   xmlns:cc="http://creativecommons.org/ns#"
   xmlns:rdf="http://www.w3.org/1999/02/22-rdf-syntax-ns#"
   xmlns:svg="http://www.w3.org/2000/svg"
   xmlns="http://www.w3.org/2000/svg"
   xmlns:xlink="http://www.w3.org/1999/xlink"
   xmlns:sodipodi="http://sodipodi.sourceforge.net/DTD/sodipodi-0.dtd"
   xmlns:inkscape="http://www.inkscape.org/namespaces/inkscape"
   width="22.920361mm"
   height="18.418108mm"
   viewBox="0 0 81.213875 65.261008"
   id="svg4198"
   version="1.1"
   inkscape:version="0.91 r13725"
   sodipodi:docname="logo_pypiper.svg">
  <defs
     id="defs4200">
    <linearGradient
       inkscape:collect="always"
       id="linearGradient4236">
      <stop
         style="stop-color:#008000;stop-opacity:1"
         offset="0"
         id="stop4238" />
      <stop
         style="stop-color:#005500;stop-opacity:1"
         offset="1"
         id="stop4240" />
    </linearGradient>
    <linearGradient
       gradientTransform="matrix(0.562541,0,0,0.567972,65.26592,911.40096)"
       gradientUnits="userSpaceOnUse"
       xlink:href="#linearGradient4671"
       id="linearGradient1475"
       y2="137.27299"
       x2="112.03144"
       y1="192.35176"
       x1="150.96111" />
    <linearGradient
       id="linearGradient4671">
      <stop
         id="stop4673"
         offset="0"
         style="stop-color:#ffd43b;stop-opacity:1" />
      <stop
         id="stop4675"
         offset="1"
         style="stop-color:#ffe873;stop-opacity:1" />
    </linearGradient>
    <linearGradient
       gradientTransform="matrix(0.562541,0,0,0.567972,65.26592,911.40096)"
       gradientUnits="userSpaceOnUse"
       xlink:href="#linearGradient4689"
       id="linearGradient1478"
       y2="114.39767"
       x2="135.66525"
       y1="20.603781"
       x1="26.648937" />
    <linearGradient
       id="linearGradient4689">
      <stop
         id="stop4691"
         offset="0"
         style="stop-color:#5a9fd4;stop-opacity:1" />
      <stop
         id="stop4693"
         offset="1"
         style="stop-color:#306998;stop-opacity:1" />
    </linearGradient>
    <linearGradient
       inkscape:collect="always"
       xlink:href="#linearGradient4236"
       id="linearGradient4242"
       x1="309.95944"
       y1="908.2843"
       x2="332.08685"
       y2="908.2843"
       gradientUnits="userSpaceOnUse"
       gradientTransform="matrix(0.27135886,0,0,0.27135886,205.9076,629.00796)" />
  </defs>
  <sodipodi:namedview
     id="base"
     pagecolor="#ffffff"
     bordercolor="#666666"
     borderopacity="1.0"
     inkscape:pageopacity="0.0"
     inkscape:pageshadow="2"
     inkscape:zoom="0.70710678"
     inkscape:cx="264.95812"
     inkscape:cy="-405.56401"
     inkscape:document-units="px"
     inkscape:current-layer="layer1"
     showgrid="false"
     fit-margin-top="2"
     fit-margin-left="3"
     fit-margin-right="3"
     fit-margin-bottom="2" />
  <metadata
     id="metadata4203">
    <rdf:RDF>
      <cc:Work
         rdf:about="">
        <dc:format>image/svg+xml</dc:format>
        <dc:type
           rdf:resource="http://purl.org/dc/dcmitype/StillImage" />
        <dc:title></dc:title>
      </cc:Work>
    </rdf:RDF>
  </metadata>
  <g
     inkscape:label="Layer 1"
     inkscape:groupmode="layer"
     id="layer1"
     transform="translate(-271.96131,-856.17503)">
    <path
       sodipodi:nodetypes="cccccccccccc"
       inkscape:connector-curvature="0"
       d="m 306.63477,904.49829 16.10836,0 -3.50574,9.69829 2.96836,-2.61007 c 4.6828,-4.0687 12.15486,-7.67674 17.17035,-9.54477 l 2.58446,-0.97239 -2.58446,-0.94682 c -4.9899,-1.84238 -12.48755,-5.45047 -17.17035,-9.54474 l -2.96836,-2.61012 3.50574,9.69835 -16.10836,0 z"
       id="path4181"
       style="fill:#87de87;stroke:#ffffff;stroke-width:0.4070383;stroke-miterlimit:4;stroke-dasharray:none" />
    <path
       style="fill:url(#linearGradient4242);fill-opacity:1;stroke:#ffffff;stroke-width:0.4070383;stroke-miterlimit:4;stroke-dasharray:none"
       id="path4167-6"
       d="m 290.12478,904.50312 -7.20012,0 0,-6.72157 c -0.2921,-6.46352 0,-12.90684 0,-19.50009 0,-3.65929 2.98113,-6.65319 6.64036,-6.65319 l 21.79071,0 0,7.04343 -21.27892,0 0,19.12043"
       inkscape:connector-curvature="0"
       sodipodi:nodetypes="ccccscccc" />
    <g
       id="g4217"
       transform="matrix(0.55652859,0,0,0.55652859,118.5349,295.45224)"
       style="stroke:#008000;stroke-width:0.73138791;stroke-miterlimit:4;stroke-dasharray:none;stroke-opacity:1">
      <path
         d="m 362.52442,1035.0781 0,6.0005 c 0,4.652 -3.94406,8.5675 -8.44156,8.5675 l -13.49707,0 c -3.69708,0 -6.7564,3.1643 -6.7564,6.8666 l 0,12.8672 c 0,3.6621 3.18441,5.8159 6.7564,6.8666 4.27739,1.2578 8.37919,1.4851 13.49707,0 3.40189,-0.985 6.75639,-2.9672 6.75639,-6.8666 l 0,-5.15 -13.49705,0 0,-1.7167 13.49705,0 6.7564,0 c 3.9272,0 5.39064,-2.7394 6.7564,-6.8508 1.41079,-4.2328 1.35076,-8.3034 0,-13.7334 -0.97054,-3.9095 -2.82421,-6.8509 -6.7564,-6.8509 l -5.07123,0 z m -7.59112,32.5851 c 1.40079,0 2.53562,1.1478 2.53562,2.5671 0,1.4245 -1.13483,2.5829 -2.53562,2.5829 -1.39578,0 -2.53562,-1.1584 -2.53562,-2.5829 0,-1.4193 1.13984,-2.5671 2.53562,-2.5671 z"
         style="fill:#005500;fill-opacity:1;stroke:#008000;stroke-width:0.73138791;stroke-miterlimit:4;stroke-dasharray:none;stroke-opacity:1"
         id="path1950"
         inkscape:connector-curvature="0" />
      <path
         d="m 347.04297,1020.6361 c -2.31006,0.011 -4.51609,0.2078 -6.45718,0.5513 -5.7182,1.0101 -6.7564,3.1246 -6.7564,7.0241 l 0,5.15 13.51281,0 0,1.7166 -13.51281,0 -5.07124,0 c -3.92721,0 -7.36596,2.3605 -8.44157,6.8509 -1.2407,5.1471 -1.29573,8.3589 0,13.7334 0.96053,4.0004 3.25443,6.8508 7.18164,6.8508 l 4.64601,0 0,-6.1737 c 0,-4.4601 3.85899,-8.3943 8.44156,-8.3943 l 13.49707,0 c 3.75709,0 6.75639,-3.0935 6.75639,-6.8666 l 0,-12.8671 c 0,-3.662 -3.08935,-6.413 -6.75639,-7.0241 -2.32132,-0.3864 -4.72986,-0.562 -7.03989,-0.5513 z m -7.30763,4.142 c 1.39577,0 2.53562,1.1586 2.53562,2.5829 -10e-6,1.4194 -1.13985,2.5671 -2.53562,2.5671 -1.40079,0 -2.53562,-1.1477 -2.53562,-2.5671 0,-1.4243 1.13483,-2.5829 2.53562,-2.5829 z"
         style="fill:#005500;fill-opacity:1;stroke:#008000;stroke-width:0.73138791;stroke-miterlimit:4;stroke-dasharray:none;stroke-opacity:1"
         id="path1948"
         inkscape:connector-curvature="0" />
    </g>
    <path
       style="fill:#00aa00;stroke:#ffffff;stroke-width:0.4070383;stroke-miterlimit:4;stroke-dasharray:none"
       id="path4167-3"
       d="m 295.5042,904.49829 16.10836,0 -3.50574,9.69829 2.96836,-2.61007 c 4.68279,-4.0687 12.15486,-7.67674 17.17035,-9.54477 l 2.58446,-0.97239 -2.58446,-0.94682 c -4.9899,-1.84238 -12.48756,-5.45047 -17.17035,-9.54474 l -2.96836,-2.61012 3.50574,9.69835 -16.10836,0 z"
       inkscape:connector-curvature="0"
       sodipodi:nodetypes="cccccccccccc" />
    <path
       style="fill:#008000;stroke:#ffffff;stroke-width:0.4070383;stroke-miterlimit:4;stroke-dasharray:none"
       id="path4167"
       d="m 289.80316,904.49829 10.54307,0 -3.50574,9.69829 2.96836,-2.61007 c 4.6828,-4.0687 12.15486,-7.67674 17.17035,-9.54477 l 2.58447,-0.97239 -2.58447,-0.94683 c -4.9899,-1.84236 -12.48755,-5.45046 -17.17035,-9.54473 -6.35903,-7.2805 -0.43636,4.39448 0.53738,7.08823 l -10.54307,0"
       inkscape:connector-curvature="0"
       sodipodi:nodetypes="cccccccccc" />
  </g>
</svg>
