<?xml version="1.0" encoding="UTF-8" standalone="no"?>
<!-- Created with Inkscape (http://www.inkscape.org/) -->

<svg
   xmlns:dc="http://purl.org/dc/elements/1.1/"
   xmlns:cc="http://creativecommons.org/ns#"
   xmlns:rdf="http://www.w3.org/1999/02/22-rdf-syntax-ns#"
   xmlns:svg="http://www.w3.org/2000/svg"
   xmlns="http://www.w3.org/2000/svg"
   xmlns:sodipodi="http://sodipodi.sourceforge.net/DTD/sodipodi-0.dtd"
   xmlns:inkscape="http://www.inkscape.org/namespaces/inkscape"
   width="12.409734mm"
   height="10.345636mm"
   viewBox="0 0 43.971502 36.657764"
   id="svg4470"
   version="1.1"
   inkscape:version="0.91 r13725"
   sodipodi:docname="memory.svg">
  <defs
     id="defs4472">
    <radialGradient
       r="16"
       gradientTransform="matrix(1.5315,0,0,1.028,-3.9699,29.405)"
       cx="15.286"
       cy="33.369999"
       gradientUnits="userSpaceOnUse"
       id="radialGradient4554">
      <stop
         offset="0"
         stop-color="#f00"
         id="stop3009" />
      <stop
         offset="1"
         stop-color="#800000"
         id="stop3011" />
    </radialGradient>
    <linearGradient
       y2="4.2326002"
       x2="7.2297001"
       gradientTransform="matrix(1.0345,0,0,1,4.1192,31.948)"
       y1="28.798"
       gradientUnits="userSpaceOnUse"
       x1="28.211"
       id="linearGradient4556">
      <stop
         offset="0"
         stop-opacity=".19417"
         stop-color="#fff"
         id="stop2800" />
      <stop
         offset="1"
         stop-opacity="0"
         stop-color="#fff"
         id="stop2802" />
    </linearGradient>
    <linearGradient
       y2="2.5"
       x2="20.540001"
       gradientTransform="matrix(1.0334,0,0,0.9055,3.5706,32.126)"
       y1="5.9130998"
       gradientUnits="userSpaceOnUse"
       x1="20.540001"
       id="linearGradient4558">
      <stop
         offset="0"
         stop-opacity="0"
         id="stop2782" />
      <stop
         offset="1"
         stop-opacity=".23301"
         stop-color="#fff"
         id="stop2784" />
    </linearGradient>
    <radialGradient
       r="16"
       gradientTransform="matrix(1.5315,0,0,1.028,-3.9699,29.405)"
       cx="15.286"
       cy="33.369999"
       gradientUnits="userSpaceOnUse"
       id="radialGradient4554-3">
      <stop
         offset="0"
         stop-color="#f00"
         id="stop3009-6" />
      <stop
         offset="1"
         stop-color="#800000"
         id="stop3011-7" />
    </radialGradient>
    <filter
       style="color-interpolation-filters:sRGB"
       inkscape:collect="always"
       id="filter3836">
      <feGaussianBlur
         inkscape:collect="always"
         stdDeviation="4.6089063"
         id="feGaussianBlur3838" />
    </filter>
    <linearGradient
       inkscape:collect="always"
       x1="233.22"
       y1="786.60999"
       gradientTransform="matrix(1.0966,0,0,1.2833,-35.684,-208.4)"
       x2="499.81"
       gradientUnits="userSpaceOnUse"
       y2="714.54999"
       id="linearGradient3036">
      <stop
         offset="0"
         style="stop-color:#67a9ff"
         id="stop3032" />
      <stop
         offset="1"
         style="stop-color:#33ea00"
         id="stop3034" />
    </linearGradient>
    <filter
       style="color-interpolation-filters:sRGB"
       inkscape:collect="always"
       id="filter3961">
      <feGaussianBlur
         inkscape:collect="always"
         stdDeviation="4.6875952"
         id="feGaussianBlur3963" />
    </filter>
  </defs>
  <sodipodi:namedview
     id="base"
     pagecolor="#ffffff"
     bordercolor="#666666"
     borderopacity="1.0"
     inkscape:pageopacity="0.0"
     inkscape:pageshadow="2"
     inkscape:zoom="1.296957"
     inkscape:cx="217.51189"
     inkscape:cy="-28.340827"
     inkscape:document-units="px"
     inkscape:current-layer="layer1"
     showgrid="false"
     fit-margin-top="1"
     fit-margin-left="1"
     fit-margin-right="1"
     fit-margin-bottom="1"
     width="115mm"
     height="25mm" />
  <metadata
     id="metadata4475">
    <rdf:RDF>
      <cc:Work
         rdf:about="">
        <dc:format>image/svg+xml</dc:format>
        <dc:type
           rdf:resource="http://purl.org/dc/dcmitype/StillImage" />
        <dc:title></dc:title>
      </cc:Work>
    </rdf:RDF>
  </metadata>
  <g
     inkscape:label="Layer 1"
     inkscape:groupmode="layer"
     id="layer1"
     transform="translate(-107.78039,-63.718794)">
    <g
       transform="matrix(0.05851969,0,0,0.05835303,107.95066,43.37684)"
       inkscape:label="Layer 1"
       id="layer1-2">
      <path
         d="m 632.72,462.06 c -4.6894,2.3205 -10.765,5.0189 -10.906,11.156 0.57998,87.512 0.0858,175.18 0.25,262.75 l 0,124.44 -28.625,0 c -1.8123,5.2027 -1.0744,13.956 6,14.188 12.04,-0.85862 24.228,-0.32628 36.344,-0.46875 l 0,-413.97 c -1.0208,0.63542 -2.0417,1.2708 -3.0625,1.9062 z m -48.94,30.44 c -4.6894,2.3205 -10.765,5.0189 -10.906,11.156 0.57998,87.512 0.0858,175.18 0.25,262.75 l 0,94 -23.281,0 c -1.8123,5.2027 -1.0744,13.956 6,14.188 10.268,-0.76908 20.659,-0.38873 31,-0.46875 l 0,-383.53 c -1.0208,0.63542 -2.0417,1.2708 -3.0625,1.9062 z m -43.594,27.094 c -4.6894,2.3205 -10.765,5.0189 -10.906,11.156 0.57998,87.512 0.0858,175.18 0.25,262.75 l 0,66.906 -23.281,0 c -1.8123,5.2027 -1.0744,13.956 6,14.188 10.268,-0.76908 20.659,-0.38873 31,-0.46875 l 0,-356.44 c -1.0208,0.63542 -2.0417,1.2708 -3.0625,1.9062 z m -43.594,27.094 c -4.6894,2.3205 -10.765,5.0189 -10.906,11.156 0.57998,87.512 0.0858,175.18 0.25,262.75 l 0,39.812 -23.281,0 c -1.8123,5.2027 -1.0744,13.956 6,14.188 10.268,-0.76908 20.659,-0.38873 31,-0.46875 l 0,-329.34 c -1.0208,0.63542 -2.0417,1.2708 -3.0625,1.9062 z m -43.625,27.125 c -4.6894,2.3205 -10.765,5.0189 -10.906,11.156 0.57998,87.512 0.0858,175.18 0.25,262.75 -0.71782,5.5114 3.0469,15.505 -6,12.688 -5.5093,0.69207 -13.342,-1.3667 -17.449,0.98589 -1.9315,5.2687 -0.0838,13.607 6.8237,13.233 10.04,-0.97142 20.229,-0.30936 30.344,-0.5 l 0,-302.22 c -1.0208,0.63542 -2.0417,1.2708 -3.0625,1.9062 z m -43.6,27.11 c -4.6894,2.3205 -10.765,5.0189 -10.906,11.156 0.57952,82.71 0.0862,165.57 0.25,248.34 l -23.281,0 c -1.8123,5.2027 -1.0744,13.956 6,14.188 10.268,-0.76908 20.659,-0.38873 31,-0.46875 l 0,-275.12 c -1.0208,0.63542 -2.0417,1.2708 -3.0625,1.9062 z m -43.6,27.09 c -4.6894,2.3205 -10.765,5.0189 -10.906,11.156 0.57836,73.679 0.087,147.51 0.25,221.25 l -23.281,0 c -1.8123,5.2027 -1.0744,13.956 6,14.188 10.268,-0.76908 20.659,-0.38873 31,-0.46875 l 0,-248.03 c -1.0208,0.63542 -2.0417,1.2708 -3.0625,1.9062 z m -43.594,27.125 c -4.6894,2.3205 -10.765,5.0189 -10.906,11.156 0.5766,64.638 0.0884,129.43 0.25,194.12 l -23.281,0 c -1.8123,5.2027 -1.0744,13.956 6,14.188 10.268,-0.76908 20.659,-0.38873 31,-0.46875 l 0,-220.91 c -1.0208,0.63542 -2.0417,1.2708 -3.0625,1.9062 z m -43.594,27.094 c -4.6894,2.3205 -10.765,5.0189 -10.906,11.156 0.57377,55.606 0.0905,111.37 0.25,167.03 l -23.281,0 c -1.8123,5.2027 -1.0744,13.956 6,14.188 10.268,-0.76908 20.659,-0.38873 31,-0.46875 l 0,-193.81 c -1.0208,0.63542 -2.0417,1.2708 -3.0625,1.9062 z m -43.625,27.125 c -4.6894,2.3205 -10.765,5.0189 -10.906,11.156 0.56884,46.565 0.0941,93.282 0.25,139.91 l -23.281,0 c -1.8123,5.2027 -1.0744,13.956 6,14.188 10.268,-0.76908 20.659,-0.38873 31,-0.46875 l 0,-166.69 c -1.0208,0.63542 -2.0417,1.2708 -3.0625,1.9062 z m -43.6,27.1 c -4.6894,2.3205 -10.765,5.0189 -10.906,11.156 0.55929,37.534 0.10117,75.22 0.25,112.81 l -23.281,0 c -1.8123,5.2027 -1.0744,13.956 6,14.188 10.268,-0.76908 20.659,-0.38873 31,-0.46875 l 0,-139.59 c -1.0208,0.63542 -2.0417,1.2708 -3.0625,1.9062 z m -43.594,29.094 c -4.6894,2.3205 -10.765,5.0189 -10.906,11.156 0.53777,28.504 0.11696,55.156 0.25,83.719 l -22.031,0 c -1.8123,5.2027 -1.0744,13.956 6,14.188 11.842,-0.85068 17.832,-0.33145 29.75,-0.46875 l 0,-110.5 c -1.0208,0.63542 -2.0417,1.2708 -3.0625,1.9062 z"
         inkscape:connector-curvature="0"
         style="fill:#000000;filter:url(#filter3836)"
         sodipodi:nodetypes="ccccccccccccccccccccccccccccccccccccccccccccccccccccccccccccccccccccccccccccccccccccccccccccccccccccc"
         id="path3057" />
      <path
         d="m 628.94,452.21 -34.656,22.142 0,392.07 34.656,0 0,-414.21 z m -48.94,31.3 -29.312,18.736 0,364.17 29.312,0 0,-382.91 z m -43.594,27.863 -29.312,18.736 0,336.31 29.312,0 0,-355.05 z m -43.594,27.863 -29.312,18.736 0,308.45 29.312,0 0,-327.18 z m -43.625,27.895 -29.312,18.736 0,280.55 29.312,0 0,-299.29 z m -43.594,27.863 -29.312,18.736 0,252.69 29.312,0 0,-271.43 z m -43.61,27.88 -29.312,18.768 0,224.8 29.312,0 0,-243.56 z m -43.594,27.895 -29.312,18.736 0,196.93 29.312,0 0,-215.67 z m -43.6,27.85 -29.31,18.74 0,169.07 29.312,0 0,-187.81 z m -43.625,27.895 -29.312,18.736 0,141.18 29.312,0 0,-159.91 z m -43.594,27.863 -29.312,18.736 0,113.31 29.312,0 0,-132.05 z m -43.59,27.87 -34.062,21.789 0,82.398 34.062,0 0,-104.19 z"
         inkscape:connector-curvature="0"
         style="fill:url(#linearGradient3036)"
         id="rect2985" />
      <path
         d="m 629.91,452.41 c -11.864,7.4696 -23.732,14.932 -35.594,22.406 l 0,389.72 c 8.6379,2.6275 7.2424,-4.7785 7.0312,-11 l 0,-374.53 c 10.541,-6.6465 21.086,-13.288 31.625,-19.938 -0.84163,-2.9325 2.3777,-12.007 -3.0625,-6.6562 z m -48.94,30.84 c -10.083,6.3651 -20.169,12.726 -30.25,19.094 l 0,362.19 c 8.6379,2.6275 7.2424,-4.7785 7.0312,-11 l 0,-347.03 c 8.76,-5.5216 17.524,-11.037 26.281,-16.562 -0.84264,-2.9345 2.3806,-12.046 -3.0625,-6.6875 z m -43.594,27.5 c -10.083,6.3448 -20.17,12.682 -30.25,19.031 l 0,334.75 c 8.6379,2.6275 7.2424,-4.7785 7.0312,-11 l 0,-319.56 c 8.76,-5.5216 17.524,-11.037 26.281,-16.562 -0.84163,-2.9325 2.3777,-12.007 -3.0625,-6.6562 z m -43.594,27.438 c -10.083,6.3651 -20.169,12.726 -30.25,19.094 l 0,307.25 c 8.6379,2.6275 7.2424,-4.7785 7.0312,-11 l 0,-292.06 c 8.7601,-5.5317 17.523,-11.06 26.281,-16.594 -0.84264,-2.9345 2.3806,-12.046 -3.0625,-6.6875 z m -43.625,27.531 c -10.083,6.3549 -20.169,12.704 -30.25,19.062 l 0,279.75 c 8.6379,2.6275 7.2424,-4.7785 7.0312,-11 l 0,-264.56 c 8.76,-5.5216 17.524,-11.037 26.281,-16.562 -0.84264,-2.9345 2.3806,-12.046 -3.0625,-6.6875 z m -43.6,27.47 c -10.083,6.3549 -20.169,12.704 -30.25,19.062 l 0,252.28 c 8.6379,2.6275 7.2424,-4.7785 7.0312,-11 l 0,-237.09 c 8.76,-5.5216 17.524,-11.037 26.281,-16.562 -0.84264,-2.9345 2.3806,-12.046 -3.0625,-6.6875 z m -43.594,27.469 c -10.083,6.3753 -20.168,12.748 -30.25,19.125 l 0,224.75 c 8.6379,2.6275 7.2424,-4.7785 7.0312,-11 l 0,-209.59 c 8.7601,-5.5317 17.523,-11.06 26.281,-16.594 -0.84264,-2.9345 2.3806,-12.046 -3.0625,-6.6875 z m -43.59,27.53 c -10.083,6.3448 -20.17,12.682 -30.25,19.031 l 0,197.31 c 8.6379,2.6275 7.2424,-4.7785 7.0312,-11 l 0,-182.12 c 8.7598,-5.5114 17.525,-11.015 26.281,-16.531 -0.84264,-2.9345 2.3806,-12.046 -3.0625,-6.6875 z m -43.594,27.438 c -10.083,6.3651 -20.169,12.726 -30.25,19.094 l 0,169.81 c 8.6379,2.6275 7.2424,-4.7785 7.0312,-11 l 0,-154.62 c 8.7601,-5.5317 17.523,-11.06 26.281,-16.594 -0.84264,-2.9345 2.3806,-12.046 -3.0625,-6.6875 z m -43.625,27.531 c -10.083,6.3651 -20.169,12.726 -30.25,19.094 l 0,142.28 c 8.6379,2.6275 7.2424,-4.7785 7.0312,-11 l 0,-127.12 c 8.76,-5.5216 17.524,-11.037 26.281,-16.562 -0.84264,-2.9345 2.3806,-12.046 -3.0625,-6.6875 z m -43.6,27.46 c -10.083,6.3549 -20.169,12.704 -30.25,19.062 l 0,114.84 c 8.6379,2.6275 7.2424,-4.7785 7.0312,-11 l 0,-99.656 c 8.76,-5.5216 17.524,-11.037 26.281,-16.562 -0.84264,-2.9345 2.3806,-12.046 -3.0625,-6.6875 z m -43.594,27.469 c -11.666,7.3651 -23.335,14.726 -35,22.094 l 0,84.344 c 8.6379,2.6275 7.2424,-4.7785 7.0312,-11 l 0,-69.156 c 10.343,-6.5317 20.689,-13.06 31.031,-19.594 -0.84264,-2.9345 2.3806,-12.046 -3.0625,-6.6875 z"
         inkscape:connector-curvature="0"
         style="fill:#ffffff;filter:url(#filter3961)"
         id="path3904" />
    </g>
  </g>
</svg>
